<svg width="13" height="13" viewBox="0 0 13 13" fill="none" xmlns="http://www.w3.org/2000/svg">
<path fill-rule="evenodd" clip-rule="evenodd" d="M11.375 9.165V10.79C11.3763 11.095 11.2488 11.3865 11.0241 11.5927C10.7993 11.7989 10.498 11.9008 10.1942 11.8733C8.5274 11.6922 6.92632 11.1227 5.51961 10.2104C4.21085 9.37878 3.10125 8.26918 2.26961 6.96042C1.35418 5.54732 0.784494 3.93846 0.606695 2.26417C0.579327 1.96131 0.680509 1.66089 0.885527 1.4363C1.09054 1.21171 1.38052 1.08362 1.68461 1.08334H3.30961C3.85337 1.07798 4.31684 1.47657 4.39295 2.015C4.46153 2.53504 4.58873 3.04565 4.77211 3.53709C4.92093 3.93298 4.82575 4.37927 4.52836 4.68L3.84045 5.36792C4.61154 6.72401 5.73436 7.84683 7.09045 8.61792L7.77836 7.93C8.07909 7.63262 8.52539 7.53744 8.92128 7.68625C9.41272 7.86963 9.92333 7.99683 10.4434 8.06542C10.988 8.14226 11.3887 8.6151 11.375 9.165Z" stroke="#52514F" stroke-linecap="round" stroke-linejoin="round"/>
</svg>
